# 3ds Max Wavefront OBJ Exporter v0.97b - (c)2007 guruware
# File Created: 06.04.2019 21:31:14

mtllib stone_01_01.mtl

#
# object stone_002
#

v  -0.1035 0.0368 0.0533
v  -0.0836 0.0052 0.0333
v  -0.0390 0.0221 0.0916
v  0.0453 0.1167 0.0811
v  0.0654 0.1450 0.0431
v  0.0340 0.1410 0.1071
v  0.0278 0.0877 -0.1052
v  -0.0288 0.0127 -0.0986
v  -0.0413 0.0704 -0.1267
v  -0.0245 0.2089 -0.0607
v  -0.0718 0.1825 -0.1187
v  -0.0563 0.2077 -0.0312
v  0.0564 0.1109 0.0427
v  0.1102 0.1376 0.0146
v  0.0751 0.1569 0.0203
v  0.1092 0.1435 -0.0640
v  0.1257 0.1382 -0.0433
v  -0.0888 0.0262 -0.0273
v  -0.1144 0.0821 -0.0141
v  0.0654 0.0950 0.0263
v  0.0376 0.1215 -0.0231
v  -0.0959 0.2169 0.0538
v  -0.0666 0.1856 0.1391
v  0.0164 0.2121 0.0786
v  0.0086 0.1936 -0.0269
v  0.0219 0.1345 -0.0433
v  -0.0605 0.1501 -0.0576
v  -0.0244 0.0539 -0.0727
v  -0.0990 0.0521 -0.0274
v  -0.0485 0.0952 -0.0674
v  0.0548 0.0326 0.0232
v  -0.0902 0.0224 -0.0028
v  -0.0439 0.0333 0.0352
v  -0.0721 0.0571 0.0234
v  -0.1042 0.1728 -0.0998
v  -0.0887 0.1889 -0.0614
v  0.0217 0.1259 0.0223
v  0.0523 0.1637 -0.0542
v  0.0167 0.1685 0.0112
v  0.0302 0.0406 -0.0719
v  0.0152 0.0178 -0.0812
v  -0.0507 0.0621 0.1184
v  -0.1165 0.1983 0.0944
v  -0.0868 0.0124 -0.0616
v  0.0411 0.0289 -0.0314
v  -0.1014 0.0508 -0.0773
v  0.0347 0.0363 0.0729
v  -0.0315 0.0013 0.0725
v  -0.0047 0.0068 0.0653
v  -0.0282 0.1602 0.0290
v  -0.1128 0.1341 -0.0178
v  -0.0691 0.1836 -0.0473
v  -0.0520 0.2152 -0.0157
v  -0.0648 0.1451 0.0377
v  -0.0688 0.2106 -0.0089
v  -0.0953 0.1667 -0.0013
v  -0.0595 0.1098 0.0440
v  -0.1269 0.1373 -0.0156
v  -0.1207 0.1008 -0.0120
v  -0.1316 0.1301 0.0826
v  -0.1214 0.2165 0.0421
v  -0.1367 0.1552 0.0097
v  -0.0786 0.2332 0.0021
v  0.0492 0.0545 -0.0345
v  0.0552 0.0989 -0.0409
v  -0.0096 0.1364 -0.1311
v  -0.0504 0.1795 -0.1315
v  -0.0218 0.1889 -0.1233
v  0.0128 0.1301 -0.0570
v  0.0022 0.1001 0.0013
v  0.0125 0.1311 0.0051
v  0.0381 0.0248 0.0250
v  0.0807 0.0276 0.0181
v  0.1001 0.0672 0.0293
v  -0.0199 0.2297 0.0126
v  0.0335 0.1871 0.0013
v  0.0205 0.0831 0.0283
v  -0.0546 0.0886 0.0434
v  0.1371 0.0832 -0.0243
v  0.1103 0.0346 -0.0288
v  0.1088 0.0941 -0.0813
v  0.0612 0.0163 -0.0738
v  -0.0029 0.0404 -0.0427
v  0.0370 0.0492 -0.0832
v  0.0153 0.0773 0.1025
v  0.0199 0.1335 0.1260
v  -0.0573 0.0932 0.1349
v  -0.0200 0.1923 0.1286
v  -0.0016 0.0398 -0.0038
v  0.0881 0.0071 -0.0251
v  0.0143 0.0360 0.0219
v  0.0754 0.1528 -0.0756
v  0.0419 0.1644 -0.0477
v  -0.0587 0.1148 0.1431
v  -0.1011 0.1587 0.1127
v  -0.1115 0.0918 -0.0894
v  -0.1195 0.1054 -0.0618
v  0.0603 0.1685 0.0520
v  -0.1142 0.0712 -0.0131
v  0.0418 0.0742 0.0363
v  -0.0024 0.0671 -0.0016
v  -0.1194 0.0720 0.0693
v  -0.1302 0.1143 0.0868
v  -0.1105 0.1198 0.1065
v  -0.0563 0.1335 -0.1422
v  0.1174 0.1103 -0.0711
v  0.0576 0.1137 -0.0940
v  0.0257 0.0627 -0.0519
v  -0.0302 0.0731 -0.0650
v  0.0256 0.1345 -0.1207
v  0.0300 0.2041 -0.0619
v  0.1123 0.0909 0.0280
v  -0.1198 0.1619 -0.0232
v  -0.1188 0.1389 -0.0965
v  0.0023 0.0786 -0.0527
v  0.0586 0.0571 0.0092
v  0.0455 0.0769 -0.0176
v  0.1315 0.1316 -0.0225
v  0.0238 0.0963 -0.0513
v  -0.0493 0.1010 -0.1363
v  -0.0283 0.1841 0.0119
v  -0.0013 0.2151 -0.0171
v  -0.0314 0.2103 -0.0135
v  -0.0010 0.1898 -0.1153
v  -0.0080 0.2212 0.0018
v  0.0182 0.2131 -0.0617
v  0.0353 0.0674 0.0934
v  0.0441 0.1668 -0.0033
v  -0.1090 0.1856 -0.0311
v  -0.0907 0.2015 -0.0205
# 130 vertices

vn -0.7788 -0.5549 0.2924
vn -0.4336 -0.9011 0.0107
vn -0.1060 -0.6313 0.7683
vn 0.9055 -0.0947 0.4136
vn 0.9949 0.1012 0.0036
vn 0.7986 0.1695 0.5774
vn 0.6901 -0.2420 -0.6821
vn 0.0132 -0.8145 -0.5800
vn -0.0760 -0.3754 -0.9237
vn -0.1476 0.9683 -0.2016
vn -0.4227 0.6802 -0.5989
vn -0.1852 0.9662 -0.1792
vn -0.1511 0.1948 0.9691
vn 0.6196 0.5424 0.5673
vn 0.1463 0.7874 0.5988
vn 0.5201 0.6899 -0.5035
vn 0.7648 0.6088 -0.2108
vn -0.4898 -0.7051 -0.5128
vn -0.8818 -0.2010 -0.4267
vn 0.9979 -0.0548 -0.0333
vn 0.8601 0.1630 -0.4833
vn -0.0971 0.9439 0.3157
vn -0.2119 0.4840 0.8490
vn 0.4822 0.8063 0.3425
vn 0.4502 0.5592 -0.6961
vn 0.5621 0.2546 -0.7869
vn -0.2183 0.1823 -0.9587
vn 0.0996 -0.3691 -0.9240
vn -0.7657 -0.2374 -0.5978
vn -0.2151 0.0480 -0.9754
vn 0.8036 -0.5935 -0.0446
vn -0.5422 -0.7367 0.4040
vn -0.0870 -0.6359 0.7669
vn -0.6091 -0.2081 0.7653
vn -0.6861 0.5557 -0.4695
vn -0.3872 0.8952 -0.2205
vn 0.6255 0.1572 0.7642
vn 0.9592 0.2823 -0.0134
vn 0.5834 0.4247 0.6923
vn 0.8561 -0.3182 -0.4073
vn 0.4767 -0.7904 -0.3848
vn -0.1502 -0.5232 0.8389
vn -0.6551 0.5663 0.5002
vn -0.5042 -0.8376 -0.2101
vn 0.7081 -0.6951 0.1243
vn -0.7813 -0.4146 -0.4666
vn 0.6576 -0.5192 0.5458
vn 0.0085 -0.9279 0.3728
vn 0.3183 -0.9211 0.2241
vn 0.1426 0.4049 0.9032
vn -0.6883 0.0475 -0.7239
vn -0.2869 0.4308 -0.8556
vn 0.0911 0.7402 -0.6662
vn -0.3008 0.2991 0.9056
vn -0.2701 0.8861 0.3766
vn -0.6139 0.4119 0.6734
vn -0.2445 0.0161 0.9695
vn -0.9255 0.1142 0.3611
vn -0.9048 -0.1583 0.3954
vn -0.9358 0.0557 0.3481
vn -0.7026 0.7116 0.0013
vn -0.9348 0.1272 -0.3315
vn -0.2810 0.9031 -0.3248
vn 0.9758 -0.2109 0.0580
vn 0.9982 -0.0386 0.0452
vn 0.2665 0.0354 -0.9632
vn -0.1330 0.5261 -0.8400
vn 0.1043 0.6704 -0.7347
vn -0.7885 0.4140 -0.4548
vn -0.9052 0.1657 0.3914
vn -0.7738 0.4520 0.4438
vn -0.3003 -0.6800 0.6688
vn 0.4084 -0.6342 0.6565
vn 0.5091 -0.3416 0.7900
vn 0.2111 0.9680 -0.1360
vn 0.7669 0.5373 -0.3508
vn 0.5957 -0.0359 0.8024
vn -0.1934 -0.1021 0.9758
vn 0.9756 -0.2192 0.0093
vn 0.8271 -0.5554 -0.0859
vn 0.5708 -0.1221 -0.8119
vn 0.0422 -0.7760 -0.6293
vn -0.8255 -0.4885 -0.2826
vn -0.3574 -0.2538 -0.8988
vn 0.2550 -0.4280 0.8671
vn 0.5417 0.0075 0.8406
vn -0.1696 -0.4339 0.8849
vn 0.2461 0.6163 0.7481
vn -0.7902 -0.5120 0.3368
vn 0.3730 -0.9278 0.0102
vn 0.4624 -0.6209 0.6330
vn 0.1179 0.7559 -0.6440
vn -0.3158 0.9010 -0.2973
vn -0.1713 -0.1724 0.9700
vn -0.6554 0.0400 0.7542
vn -0.8085 -0.2880 -0.5132
vn -0.9758 -0.1881 -0.1116
vn 0.9049 0.4053 0.1301
vn -0.8984 -0.2771 0.3407
vn -0.3249 -0.1056 0.9398
vn -0.9181 0.0261 0.3954
vn -0.8363 -0.4392 0.3282
vn -0.8762 -0.2061 0.4357
vn -0.6420 -0.1715 0.7473
vn -0.2139 -0.0020 -0.9769
vn 0.7561 0.1259 -0.6422
vn -0.1579 0.1821 -0.9705
vn 0.5841 -0.3441 -0.7351
vn 0.4167 0.3069 -0.8557
vn 0.6512 0.0418 -0.7578
vn 0.7727 0.6249 -0.1114
vn 0.6561 -0.0401 0.7536
vn -0.8762 0.3964 0.2741
vn -0.8696 0.0638 -0.4896
vn -0.8869 0.0808 -0.4548
vn 0.9177 -0.2762 -0.2855
vn 0.8828 -0.0373 -0.4683
vn 0.8737 0.4684 0.1317
vn 0.5686 0.1202 -0.8138
vn -0.1404 -0.2787 -0.9501
vn 0.0796 0.6072 0.7906
vn 0.2721 0.8782 0.3933
vn -0.0457 0.9132 0.4049
vn 0.4123 0.5985 -0.6869
vn 0.3971 0.8360 -0.3787
vn 0.3396 0.9268 -0.1603
vn 0.6520 -0.3733 0.6599
vn -0.2773 0.9205 0.2752
vn -0.7747 0.6280 0.0741
vn -0.5520 0.8099 0.1984
# 130 vertex normals

vt 0.5541 0.2610 0.0000
vt 0.5379 0.3273 0.0000
vt 0.4654 0.2845 0.0000
vt 0.3372 0.3226 0.0000
vt 0.2921 0.3600 0.0000
vt 0.3333 0.2713 0.0000
vt 0.1843 0.8909 0.0000
vt 0.2299 0.7850 0.0000
vt 0.2784 0.8642 0.0000
vt 0.4882 0.8317 0.0000
vt 0.4084 0.8744 0.0000
vt 0.4814 0.7742 0.0000
vt 0.7880 0.6190 0.0000
vt 0.8498 0.5606 0.0000
vt 0.8487 0.5992 0.0000
vt 0.9344 0.5322 0.0000
vt 0.9135 0.5179 0.0000
vt 0.5759 0.3979 0.0000
vt 0.6476 0.3255 0.0000
vt 0.3246 0.4158 0.0000
vt 0.2640 0.4581 0.0000
vt 0.1867 0.1485 0.0000
vt 0.3184 0.1141 0.0000
vt 0.2581 0.2473 0.0000
vt 0.1849 0.3672 0.0000
vt 0.2262 0.4613 0.0000
vt 0.0909 0.3882 0.0000
vt 0.5050 0.5282 0.0000
vt 0.6090 0.3798 0.0000
vt 0.6147 0.5113 0.0000
vt 0.3783 0.4511 0.0000
vt 0.3006 0.6348 0.0000
vt 0.2778 0.5826 0.0000
vt 0.3390 0.5834 0.0000
vt 0.4001 0.8268 0.0000
vt 0.4356 0.7931 0.0000
vt 0.6073 0.6614 0.0000
vt 0.5911 0.8464 0.0000
vt 0.5707 0.7138 0.0000
vt 0.1576 0.7842 0.0000
vt 0.1799 0.7747 0.0000
vt 0.4498 0.2198 0.0000
vt 0.2505 0.0848 0.0000
vt 0.2777 0.7161 0.0000
vt 0.1388 0.7102 0.0000
vt 0.3044 0.7539 0.0000
vt 0.3995 0.3656 0.0000
vt 0.4684 0.3228 0.0000
vt 0.4444 0.3514 0.0000
vt 0.5142 0.6569 0.0000
vt 0.7216 0.3019 0.0000
vt 0.0875 0.3258 0.0000
vt 0.1363 0.2855 0.0000
vt 0.4568 0.6217 0.0000
vt 0.4830 0.7384 0.0000
vt 0.4419 0.6930 0.0000
vt 0.4244 0.5670 0.0000
vt 0.3995 0.6960 0.0000
vt 0.3711 0.6713 0.0000
vt 0.1987 0.0019 0.0000
vt 0.1515 0.1408 0.0000
vt 0.0393 0.1494 0.0000
vt 0.1390 0.2266 0.0000
vt 0.1031 0.7319 0.0000
vt 0.0497 0.7822 0.0000
vt 0.3360 0.9738 0.0000
vt 0.4054 0.9053 0.0000
vt 0.4311 0.9215 0.0000
vt 0.8778 0.6937 0.0000
vt 0.7595 0.7018 0.0000
vt 0.8013 0.6791 0.0000
vt 0.7107 0.6055 0.0000
vt 0.7397 0.5488 0.0000
vt 0.7818 0.5481 0.0000
vt 0.1831 0.2780 0.0000
vt 0.2231 0.3601 0.0000
vt 0.1430 0.5578 0.0000
vt 0.3967 0.5399 0.0000
vt 0.8572 0.4850 0.0000
vt 0.7755 0.4793 0.0000
vt 0.9022 0.4263 0.0000
vt 0.6927 0.4488 0.0000
vt 0.6180 0.5804 0.0000
vt 0.6686 0.4179 0.0000
vt 0.3930 0.2893 0.0000
vt 0.3526 0.2444 0.0000
vt 0.4320 0.1693 0.0000
vt 0.3104 0.1775 0.0000
vt 0.6745 0.6427 0.0000
vt 0.7223 0.4967 0.0000
vt 0.1832 0.6181 0.0000
vt 0.9363 0.5904 0.0000
vt 0.8895 0.6393 0.0000
vt 0.4095 0.1457 0.0000
vt 0.3476 0.0517 0.0000
vt 0.3340 0.7861 0.0000
vt 0.3557 0.7472 0.0000
vt 0.2802 0.3306 0.0000
vt 0.3445 0.6673 0.0000
vt 0.7491 0.6294 0.0000
vt 0.7183 0.7118 0.0000
vt 0.7128 0.2003 0.0000
vt 0.5511 0.1930 0.0000
vt 0.5368 0.1167 0.0000
vt 0.4639 0.1044 0.0000
vt 0.3488 0.9087 0.0000
vt 0.9491 0.4864 0.0000
vt 0.9551 0.6379 0.0000
vt 0.9980 0.5230 0.0000
vt 0.3744 0.5381 0.0000
vt 0.5421 0.5402 0.0000
vt 0.4883 0.9908 0.0000
vt 0.5427 0.8522 0.0000
vt 0.8094 0.5461 0.0000
vt 0.4165 0.7199 0.0000
vt 0.3723 0.8038 0.0000
vt 0.9715 0.7581 0.0000
vt 0.8568 0.7488 0.0000
vt 0.3541 0.4546 0.0000
vt 0.3304 0.4896 0.0000
vt 0.8857 0.5221 0.0000
vt 0.2790 0.5136 0.0000
vt 0.1726 0.5528 0.0000
vt 0.2418 0.9885 0.0000
vt 0.3152 0.9008 0.0000
vt 0.5170 0.6984 0.0000
vt 0.5273 0.7751 0.0000
vt 0.5068 0.7568 0.0000
vt 0.1055 0.5062 0.0000
vt 0.0019 0.2643 0.0000
vt 0.6889 0.8155 0.0000
vt 0.4534 0.9269 0.0000
vt 0.1859 0.3037 0.0000
vt 0.5276 0.8481 0.0000
vt 0.3838 0.3243 0.0000
vt 0.8514 0.6357 0.0000
vt 0.4339 0.7445 0.0000
vt 0.4575 0.7419 0.0000
vt 0.6299 0.6037 0.0000
vt 0.8113 0.7966 0.0000
vt 0.5452 0.1008 0.0000
# 141 texture coords

g stone_002
usemtl defaultMat
s 1
f 1/1/1 2/2/2 3/3/3 
f 4/4/4 5/5/5 6/6/6 
f 7/7/7 8/8/8 9/9/9 
f 10/10/10 11/11/11 12/12/12 
f 13/13/13 14/14/14 15/15/15 
f 16/16/16 15/15/15 17/17/17 
f 18/18/18 1/1/1 19/19/19 
f 20/20/20 21/21/21 5/5/5 
f 22/22/22 23/23/23 24/24/24 
f 25/25/25 26/26/26 27/27/27 
f 28/28/28 29/29/29 30/30/30 
f 31/31/31 18/18/18 28/28/28 
f 32/32/32 33/33/33 34/34/34 
f 11/11/11 35/35/35 36/36/36 
f 37/37/37 38/38/38 39/39/39 
f 40/40/40 41/41/41 7/7/7 
f 1/1/1 3/3/3 42/42/42 
f 22/22/22 43/43/43 23/23/23 
f 44/44/44 41/41/41 45/45/45 
f 8/8/8 46/46/46 9/9/9 
f 3/3/3 47/47/47 42/42/42 
f 48/48/48 2/2/2 49/49/49 
f 50/50/50 37/37/37 39/39/39 
f 12/12/12 11/11/11 36/36/36 
f 30/30/30 29/29/29 51/51/51 
f 25/25/25 52/52/52 53/53/53 
f 54/54/54 55/55/55 56/56/56 
f 57/57/57 58/58/58 59/59/59 
f 60/60/60 61/61/61 62/62/62 
f 52/52/52 62/62/62 63/63/63 
f 64/64/64 7/7/7 65/65/65 
f 66/66/66 67/67/67 68/68/68 
f 69/69/69 70/70/70 71/71/71 
f 72/72/72 73/73/73 74/74/74 
f 75/75/75 63/63/63 24/24/24 
f 5/5/5 21/21/21 76/76/76 
f 33/33/33 32/32/32 45/45/45 
f 33/33/33 77/77/77 78/78/78 
f 79/79/79 80/80/80 81/81/81 
f 82/82/82 83/83/83 84/84/84 
f 85/85/85 86/86/86 87/87/87 
f 86/86/86 24/24/24 88/88/88 
f 70/70/70 13/13/13 71/71/71 
f 72/72/72 89/89/89 90/90/90 
f 64/64/64 65/65/65 77/77/77 
f 33/33/33 91/91/91 77/77/77 
f 92/92/92 69/69/69 93/93/93 
f 82/82/82 84/84/84 81/81/81 
f 94/94/94 23/23/23 95/95/95 
f 94/94/94 86/86/86 88/88/88 
f 9/9/9 46/46/46 96/96/96 
f 97/97/97 59/59/59 58/58/58 
f 82/82/82 81/81/81 80/80/80 
f 83/83/83 82/82/82 90/90/90 
f 98/98/98 76/76/76 24/24/24 
f 6/6/6 98/98/98 24/24/24 
f 46/46/46 99/99/99 97/97/97 
f 45/45/45 32/32/32 44/44/44 
f 100/100/100 72/72/72 74/74/74 
f 72/72/72 100/100/100 101/101/101 
f 62/102/62 102/103/102 103/104/103 
f 102/103/102 87/87/87 104/105/104 
f 11/11/11 105/106/105 35/35/35 
f 66/66/66 105/106/105 67/67/67 
f 17/17/17 106/107/106 16/16/16 
f 107/108/107 92/92/92 81/109/81 
f 28/28/28 108/110/108 31/31/31 
f 28/28/28 109/111/109 108/110/108 
f 38/38/38 110/112/110 111/113/111 
f 39/39/39 38/38/38 111/113/111 
f 13/13/13 112/114/112 14/14/14 
f 74/74/74 80/80/80 79/79/79 
f 49/49/49 2/2/2 31/31/31 
f 4/4/4 20/20/20 5/5/5 
f 58/58/58 54/54/54 56/56/56 
f 58/58/58 113/115/113 114/116/114 
f 69/69/69 84/117/84 115/118/115 
f 107/108/107 69/69/69 92/92/92 
f 2/2/2 18/18/18 31/31/31 
f 2/2/2 1/1/1 18/18/18 
f 94/94/94 88/88/88 23/23/23 
f 24/24/24 23/23/23 88/88/88 
f 114/116/114 113/115/113 35/35/35 
f 105/106/105 114/116/114 35/35/35 
f 47/47/47 31/31/31 116/119/116 
f 31/31/31 108/110/108 117/120/117 
f 79/79/79 118/121/118 112/114/112 
f 106/107/106 17/17/17 79/79/79 
f 117/120/117 108/110/108 119/122/119 
f 108/110/108 109/123/109 119/122/119 
f 58/58/58 57/57/57 54/54/54 
f 57/57/57 37/37/37 50/50/50 
f 7/7/7 110/124/110 65/65/65 
f 7/7/7 120/125/120 110/124/110 
f 104/105/104 87/87/87 94/94/94 
f 94/94/94 87/87/87 86/86/86 
f 17/17/17 15/15/15 14/14/14 
f 14/14/14 112/114/112 118/121/118 
f 24/24/24 63/63/63 22/22/22 
f 63/63/63 62/62/62 61/61/61 
f 121/126/121 122/127/122 123/128/123 
f 122/127/122 10/10/10 12/12/12 
f 44/44/44 8/8/8 41/41/41 
f 41/41/41 8/8/8 7/7/7 
f 49/49/49 47/47/47 48/48/48 
f 31/31/31 47/47/47 49/49/49 
f 26/26/26 30/129/30 27/27/27 
f 27/27/27 30/129/30 51/130/51 
f 32/32/32 34/34/34 59/59/59 
f 44/44/44 32/32/32 99/99/99 
f 115/118/115 70/70/70 69/69/69 
f 90/90/90 89/89/89 83/83/83 
f 111/113/111 122/127/122 39/39/39 
f 121/126/121 39/39/39 122/127/122 
f 51/130/51 62/62/62 52/52/52 
f 102/103/102 62/102/62 19/19/19 
f 105/106/105 120/125/120 96/96/96 
f 120/125/120 105/106/105 66/66/66 
f 81/109/81 84/117/84 107/108/107 
f 84/117/84 69/69/69 107/108/107 
f 47/47/47 20/20/20 4/4/4 
f 47/47/47 85/85/85 42/42/42 
f 27/27/27 52/52/52 25/25/25 
f 27/27/27 51/130/51 52/52/52 
f 97/97/97 58/58/58 114/116/114 
f 96/96/96 114/116/114 105/106/105 
f 65/131/65 110/112/110 38/38/38 
f 37/37/37 65/131/65 38/38/38 
f 19/19/19 62/102/62 51/51/51 
f 29/29/29 19/19/19 51/51/51 
f 16/16/16 92/92/92 15/15/15 
f 81/109/81 92/92/92 16/16/16 
f 47/47/47 116/119/116 20/20/20 
f 117/120/117 21/21/21 20/20/20 
f 96/96/96 97/97/97 114/116/114 
f 46/46/46 97/97/97 96/96/96 
f 102/103/102 1/1/1 87/87/87 
f 19/19/19 1/1/1 102/103/102 
f 89/89/89 101/101/101 83/83/83 
f 89/89/89 72/72/72 101/101/101 
f 68/68/68 11/11/11 10/10/10 
f 111/113/111 110/112/110 124/132/124 
f 25/25/25 53/53/53 125/133/125 
f 24/24/24 76/76/76 125/133/125 
f 57/57/57 78/78/78 37/37/37 
f 59/59/59 34/34/34 57/57/57 
f 126/134/126 10/10/10 122/127/122 
f 126/134/126 68/68/68 10/10/10 
f 70/70/70 100/100/100 13/13/13 
f 100/100/100 74/74/74 13/13/13 
f 125/133/125 76/76/76 25/25/25 
f 26/26/26 25/25/25 76/76/76 
f 28/28/28 18/18/18 29/29/29 
f 29/29/29 18/18/18 19/19/19 
f 57/57/57 50/50/50 54/54/54 
f 54/54/54 121/126/121 55/55/55 
f 86/86/86 6/6/6 24/24/24 
f 127/135/127 6/6/6 86/86/86 
f 46/46/46 44/44/44 99/99/99 
f 44/44/44 46/46/46 8/8/8 
f 69/69/69 71/71/71 93/93/93 
f 92/92/92 93/93/93 128/136/128 
f 61/61/61 60/60/60 43/43/43 
f 95/95/95 23/23/23 43/43/43 
f 105/106/105 11/11/11 67/67/67 
f 67/67/67 11/11/11 68/68/68 
f 73/73/73 80/80/80 74/74/74 
f 73/73/73 72/72/72 90/90/90 
f 71/71/71 128/136/128 93/93/93 
f 71/71/71 13/13/13 128/136/128 
f 116/119/116 117/120/117 20/20/20 
f 116/119/116 31/31/31 117/120/117 
f 36/36/36 35/35/35 129/137/129 
f 36/36/36 130/138/130 55/55/55 
f 13/13/13 15/15/15 128/136/128 
f 15/15/15 92/92/92 128/136/128 
f 77/139/77 65/131/65 37/37/37 
f 78/78/78 77/139/77 37/37/37 
f 90/90/90 82/82/82 80/80/80 
f 90/90/90 80/80/80 73/73/73 
f 9/9/9 96/96/96 120/125/120 
f 7/7/7 9/9/9 120/125/120 
f 36/36/36 129/137/129 130/138/130 
f 56/56/56 55/55/55 130/138/130 
f 43/43/43 60/60/60 95/95/95 
f 102/103/102 104/105/104 103/104/103 
f 115/118/115 83/140/83 70/70/70 
f 84/117/84 83/140/83 115/118/115 
f 91/91/91 33/33/33 45/45/45 
f 91/91/91 64/64/64 77/77/77 
f 112/114/112 74/74/74 79/79/79 
f 13/13/13 74/74/74 112/114/112 
f 5/5/5 76/76/76 98/98/98 
f 5/5/5 98/98/98 6/6/6 
f 58/58/58 56/56/56 113/115/113 
f 113/115/113 56/56/56 130/138/130 
f 48/48/48 47/47/47 3/3/3 
f 2/2/2 48/48/48 3/3/3 
f 64/64/64 40/40/40 7/7/7 
f 91/91/91 45/45/45 64/64/64 
f 119/122/119 30/129/30 26/26/26 
f 117/120/117 119/122/119 21/21/21 
f 61/61/61 43/43/43 22/22/22 
f 22/22/22 63/63/63 61/61/61 
f 122/127/122 111/113/111 126/134/126 
f 111/113/111 124/132/124 126/134/126 
f 45/45/45 40/40/40 64/64/64 
f 45/45/45 41/41/41 40/40/40 
f 118/121/118 17/17/17 14/14/14 
f 79/79/79 17/17/17 118/121/118 
f 113/115/113 129/137/129 35/35/35 
f 113/115/113 130/138/130 129/137/129 
f 127/135/127 4/4/4 6/6/6 
f 127/135/127 47/47/47 4/4/4 
f 52/52/52 63/63/63 53/53/53 
f 53/53/53 63/63/63 75/75/75 
f 124/132/124 68/68/68 126/134/126 
f 66/66/66 68/68/68 124/132/124 
f 50/50/50 39/39/39 121/126/121 
f 54/54/54 50/50/50 121/126/121 
f 87/87/87 1/1/1 42/42/42 
f 42/42/42 85/85/85 87/87/87 
f 81/109/81 16/16/16 106/107/106 
f 79/79/79 81/81/81 106/107/106 
f 110/112/110 66/66/66 124/132/124 
f 120/125/120 66/66/66 110/124/110 
f 12/12/12 36/36/36 55/55/55 
f 12/12/12 123/128/123 122/127/122 
f 34/34/34 33/33/33 78/78/78 
f 34/34/34 78/78/78 57/57/57 
f 76/76/76 21/21/21 26/26/26 
f 21/21/21 119/122/119 26/26/26 
f 103/104/103 95/95/95 60/141/60 
f 62/102/62 103/104/103 60/141/60 
f 121/126/121 123/128/123 55/55/55 
f 12/12/12 55/55/55 123/128/123 
f 85/85/85 127/135/127 86/86/86 
f 47/47/47 127/135/127 85/85/85 
f 125/133/125 75/75/75 24/24/24 
f 125/133/125 53/53/53 75/75/75 
f 119/122/119 109/123/109 30/129/30 
f 28/28/28 30/30/30 109/111/109 
f 83/140/83 101/101/101 70/70/70 
f 101/101/101 100/100/100 70/70/70 
f 97/97/97 99/99/99 59/59/59 
f 32/32/32 59/59/59 99/99/99 
f 103/104/103 104/105/104 95/95/95 
f 104/105/104 94/94/94 95/95/95 
# 0 polygons - 248 triangles

